<svg width="115" height="240" viewBox="0 0 115 240" fill="none" xmlns="http://www.w3.org/2000/svg">
<g clip-path="url(#clip0_563_35481)">
<path d="M97.9194 207.603C99.0669 207.537 99.7554 208.231 100.455 209.073C103.22 212.422 105.482 216.149 107.739 219.859C109.766 223.198 111.799 226.553 113.263 230.17C113.913 231.777 114.46 233.46 114.498 235.192C114.547 237.492 113.695 240.121 111.132 240.416C109.886 240.558 108.629 240.175 107.509 239.607C103.613 237.629 101.198 233.602 99.5423 229.558C99.0232 228.291 98.5205 226.946 97.4878 226.05C96.2091 224.941 94.3677 224.728 92.9634 223.788C92.1656 223.253 91.5372 222.499 90.9908 221.712C90.5482 221.072 90.1493 220.389 89.9307 219.646C89.3897 217.848 89.9198 215.925 90.4498 214.127C90.5645 213.739 90.6902 213.335 90.9798 213.051C91.2749 212.767 91.7175 212.712 92.0618 212.931C92.1765 211.969 93.0508 210.794 93.6355 210.051C94.6846 208.718 96.2255 207.707 97.9194 207.608V207.603Z" fill="#2C2D30"/>
<path d="M56.0935 117.454C56.0443 116.596 56.3394 115.754 56.629 114.946C57.8148 111.667 58.995 108.389 60.3556 105.176C61.5305 102.4 62.8473 99.6567 64.738 97.307C66.186 95.5038 67.9947 93.8919 70.1148 92.9302C71.1967 92.4384 71.9836 92.3947 73.0054 93.0777C73.8852 93.6624 74.5463 94.5312 75.1419 95.3836C77.4752 98.7277 79.5516 102.247 81.3439 105.908C82.9121 109.121 84.2618 112.438 85.371 115.836C87.513 122.426 88.2999 129.18 88.8463 136.054C89.3709 142.649 89.5949 149.425 90.9173 155.906C92.2232 162.31 94.2286 168.545 96.234 174.757C98.3705 181.375 99.436 188.281 100.491 195.156C101.349 200.724 102.201 206.286 103.059 211.854C103.217 212.893 102.988 213.39 102.124 213.964C101.37 214.466 100.491 214.75 99.6164 214.963C96.8897 215.625 93.8352 215.625 91.4801 214.1C90.8298 213.679 90.6331 212.969 90.491 212.253C90.2998 211.286 90.0922 210.319 89.8681 209.357C89.2452 206.68 88.5895 203.964 87.6004 201.401C86.5732 198.74 85.3765 196.155 84.2181 193.549C83.8902 192.833 83.5569 192.117 83.229 191.396C81.2455 187.09 79.3166 182.735 77.9943 178.173C77.3276 175.878 76.8195 173.533 76.5681 171.151C76.0982 166.769 75.1747 163.119 73.3879 159.026C71.4645 154.616 69.5575 150.196 67.6668 145.775C63.9293 137.021 60.2573 128.24 56.6563 119.437C56.3941 118.792 56.1263 118.137 56.0881 117.443L56.0935 117.454Z" fill="#883D14"/>
<path d="M44.657 195.882C45.3838 195.664 46.0996 195.374 46.7608 195.002C47.176 194.773 47.5203 194.494 47.8864 194.194C48.4 193.767 48.5421 193.899 48.8754 194.489C52.7168 201.243 58.0991 219.132 58.3067 220.641C58.4652 221.788 58.4269 222.99 58.0445 224.094C57.6401 225.28 56.662 225.624 55.4708 225.832C52.7168 226.318 49.8481 225.296 47.6569 223.564C45.4657 221.832 43.8756 219.444 42.597 216.958C41.7336 215.28 40.985 213.515 40.6954 211.646C40.526 210.543 40.6244 209.28 40.2583 208.215C39.9796 207.406 39.1053 206.964 38.6081 206.275C36.9688 203.996 37.0945 201.488 38.3731 199.095C39.0015 197.92 39.6955 196.778 40.455 195.68C40.5752 195.505 40.7282 195.314 40.9413 195.303C41.1271 195.292 41.2856 195.429 41.4386 195.543C42.3347 196.21 43.586 196.199 44.6516 195.877L44.657 195.882Z" fill="#2C2D30"/>
<path d="M32.1195 119.131C31.5895 111.601 31.36 104.028 31.136 96.498C32.4091 98.0881 33.6878 100.05 35.267 101.345C36.1686 102.088 37.5674 102.339 38.6439 102.7C43.8841 104.055 49.4576 104.126 54.7307 102.891C56.4574 102.487 58.1458 101.951 59.8671 101.542C61.0583 101.257 63.0582 100.689 64.2221 101.35C64.4789 101.498 64.6483 101.76 64.8068 102.011C65.3969 102.957 65.987 103.902 66.5007 104.891C68.741 109.197 69.4787 114.235 68.7465 119.038C68.2055 122.579 66.6865 126.371 63.7084 128.524C63.162 128.917 62.5773 129.284 62.1894 129.83C61.6539 130.59 61.5828 131.579 61.5337 132.508C61.1129 140.332 60.7359 148.163 59.9982 155.96C59.6376 159.758 59.1403 163.528 58.6048 167.304C58.124 170.708 57.0256 173.867 56.1841 177.189C55.0367 181.735 53.9493 186.298 52.9329 190.877C52.3592 193.467 51.8018 196.062 51.2663 198.658C51.157 199.193 51.1516 199.521 50.7417 199.915C50.3483 200.286 49.8456 200.543 49.3429 200.74C46.4359 201.909 42.9497 201.406 40.4361 199.554C39.9662 199.204 39.4089 198.887 39.2613 198.297C39.0373 197.396 39.1029 196.33 39.0209 195.401C38.846 193.429 38.6548 191.456 38.5182 189.483C38.4472 188.456 38.398 187.429 38.3707 186.402C38.3105 184.03 38.398 181.648 38.7641 179.303C39.1247 176.965 40.07 174.85 40.5728 172.571C41.223 169.637 41.5399 167.249 40.9225 164.277C40.2613 161.091 39.152 158.02 38.1903 154.916C34.5894 143.316 32.9665 131.278 32.1195 119.131Z" fill="#91502D"/>
<path d="M64.7877 62.6469C64.9298 61.1442 65.285 59.6689 65.815 58.2591C66.1866 57.2755 66.651 56.3029 67.345 55.5161C68.4051 54.3085 69.9733 53.5872 71.5689 53.4506C72.547 53.3686 73.2245 53.997 73.7054 54.7784C73.9021 55.1008 73.7764 55.4997 73.76 55.8603C73.7382 56.2974 73.7382 56.74 73.7546 57.1827C73.7873 58.0624 73.9076 58.9367 74.1207 59.7891C74.5359 61.4612 75.3173 63.013 75.9075 64.6304C76.5085 66.2752 76.8637 67.9582 77.1369 69.6794C77.3391 70.9526 77.4867 72.2312 77.6178 73.5153C77.7872 75.1819 77.9238 76.854 78.1096 78.5206C78.6505 83.4166 79.6177 88.2524 80.186 93.1429C80.2133 93.3998 80.2406 93.673 80.1368 93.9079C80.0439 94.1156 79.8527 94.2686 79.6669 94.3997C78.0003 95.5527 75.831 95.6948 73.8147 95.4817C72.9786 91.8752 71.5361 88.4437 70.1919 84.9957C68.8477 81.5478 67.5799 78.0233 67.1209 74.3514C66.9461 72.9634 66.8969 71.5482 67.0007 70.1493C66.4106 70.1166 65.8259 70.0619 65.2522 69.9854C64.9079 67.5538 64.5582 65.0949 64.7877 62.6469Z" fill="#E39268"/>
<path d="M68.7333 50.9806C69.1322 47.3906 69.3781 43.7842 69.471 40.1723C69.5038 38.9155 69.5147 37.6369 69.8426 36.4238C70.0721 35.5714 70.3234 34.6097 70.8152 33.8611C70.9573 33.6425 72.4272 31.7901 72.1977 31.6699C73.4162 32.3256 74.3888 33.3748 75.1101 34.5551C75.8259 35.7353 76.3013 37.0522 76.6674 38.3855C77.3887 40.981 77.7384 43.6694 78.0444 46.3469C78.2848 48.4452 78.4979 50.5489 78.5307 52.6636C78.5471 53.6089 78.6728 54.7947 78.4324 55.7127C78.2357 56.4613 77.5362 57.0951 77.0226 57.6361C75.6347 59.1169 73.8533 60.1879 71.9955 60.9747C70.5638 61.5813 68.9737 62.0457 67.4656 61.6523C67.3672 61.625 67.2689 61.5922 67.2088 61.5157C67.1432 61.4283 67.1541 61.3081 67.1596 61.1988C67.4984 57.7563 68.3399 54.4067 68.7224 50.9752L68.7333 50.9806Z" fill="#238F89"/>
<path d="M21.0894 42.0466C25.6575 36.9648 31.3512 32.9869 37.4002 29.8067C41.5148 27.6428 46.0009 25.7959 50.6456 25.9817C53.3066 26.0855 56.0661 26.845 58.5578 25.9106L60.1042 25.9708C65.8635 26.0418 73.8632 27.162 73.9178 34.4349C73.9725 41.686 72.4425 48.8059 71.5846 55.9695C70.7486 62.9638 71.3879 69.6247 72.0818 76.5971C72.8523 84.2908 74.0818 91.9408 75.7757 99.4869C75.885 99.9678 75.9888 100.476 75.8249 100.94C75.7101 101.263 75.4697 101.525 75.2293 101.771C69.6666 107.579 62.0713 111.29 54.1481 112.645C46.2195 114 37.9849 113.077 30.3567 110.525C29.1929 92.5254 25.2094 74.7174 18.5867 57.9367C17.5431 55.2974 16.3409 52.3303 16.9475 49.4397C17.5321 46.6584 19.2206 44.1176 21.0948 42.0357L21.0894 42.0466Z" fill="#38A19B"/>
<path d="M59.173 33.3969C59.0309 34.3313 58.8506 35.2602 58.6211 36.1782C58.2933 37.4732 57.7796 40.1999 56.266 40.6425C54.9054 41.0414 53.441 40.7573 52.0859 40.3256C47.7363 38.9486 43.8458 36.0853 41.3486 32.2658C40.671 31.2276 40.212 30.1074 40.8404 28.9107C41.4961 27.6594 42.9114 27.2332 44.119 26.736C45.5725 26.1349 47.0314 25.501 48.2663 24.5065C49.3537 23.6377 50.2225 22.5285 51.075 21.4302C51.9438 20.3209 52.8126 19.2062 53.6432 18.0642C54.0421 17.5123 54.9928 16.2173 55.818 16.4413C56.1185 16.5233 56.3152 16.8019 56.4627 17.0697C57.4572 18.862 57.4026 21.0313 57.3261 23.0804C57.2496 25.1295 57.2004 27.2933 58.1894 29.0911C58.4845 29.6211 59.0036 30.1621 59.5938 30.0309C59.4681 31.1511 59.3369 32.2767 59.1675 33.3914L59.173 33.3969Z" fill="#E39268"/>
<path d="M81.8784 24.7306C81.5178 25.6103 81.1462 26.501 80.5889 27.2715C79.4468 28.8452 77.6382 29.7577 76.1027 30.9489C75.7694 31.2057 75.4415 31.4844 75.2394 31.8505C75.0044 32.2658 74.9443 32.7576 74.8951 33.233C74.7968 34.1127 74.6984 34.9925 74.6055 35.8722C74.5017 36.8339 74.1957 38.0197 73.2504 38.2054C72.6602 38.3202 72.0701 37.9596 71.469 38.0033C70.9007 38.0415 70.4254 38.4295 69.9937 38.7956C68.8626 39.7518 67.7096 40.7135 66.3599 41.3201C65.0103 41.9266 63.4092 42.1342 62.0541 41.5441C60.5788 40.9048 59.6334 39.4732 58.7755 38.118C58.2127 37.2328 57.6499 36.3421 57.0926 35.4569C55.9942 33.7193 54.8522 31.6429 55.579 29.7194C55.7429 29.2823 56.0052 28.8397 55.8904 28.3862C55.8139 28.0802 55.5844 27.8397 55.3713 27.6048C53.273 25.2934 52.3933 22.0531 52.5026 18.933C52.6119 15.8129 53.6282 12.7912 54.9342 9.95522C55.7757 8.12469 56.7592 6.32695 58.1198 4.84067C61.1306 1.55665 65.9173 0.108623 70.3106 0.857226C75.5016 1.7479 79.6381 5.22317 82.2227 9.6984C83.5997 12.0863 84.4248 14.8621 84.1625 17.6106C83.9221 20.1351 82.8401 22.4192 81.8948 24.7251L81.8784 24.7306Z" fill="#F2A983"/>
<path d="M69.813 20.7251C68.13 21.6705 66.0427 21.0257 64.1083 21.0639C63.6275 21.0749 63.1193 21.135 62.7313 21.4246C62.4581 21.6322 62.2723 21.9327 62.0592 22.206C61.2177 23.2879 59.8845 23.9709 58.5129 24.0146C59.1304 22.9108 59.6222 21.6322 59.6604 20.3481C59.6823 19.5776 59.4528 18.7635 58.879 18.2553C58.3654 17.7963 57.6496 17.6378 56.9611 17.5723C56.054 17.4903 55.1142 17.5504 54.2781 17.9165C53.4421 18.2826 52.7263 18.982 52.4913 19.8618C52.382 15.8401 53.3055 11.7911 55.1469 8.21199C55.6387 7.26121 56.2016 6.33228 56.9447 5.55636C58.3108 4.14111 60.1795 3.34879 61.9937 2.59473C61.8079 3.49087 61.6002 3.96079 62.0319 4.80775C62.3762 5.48532 62.8789 6.09732 63.5127 6.52353C65.2558 7.72567 67.5563 7.61638 69.5726 8.26117C70.0207 8.40324 70.4633 8.58902 70.8239 8.88409C71.2009 9.19009 71.4796 9.59444 71.7091 10.0261C72.7091 11.9004 72.4304 13.5451 71.9659 15.474C71.4905 17.4521 71.9222 19.5394 69.813 20.7306V20.7251Z" fill="#1A1A1A"/>
<path d="M60.1093 1.39251C60.1967 1.35426 60.2842 1.32147 60.3771 1.29415C61.2787 1.03187 62.0655 1.01547 62.9945 1.15208C63.1201 1.16847 63.2458 1.19033 63.3715 1.16847C63.5026 1.14662 63.6174 1.07558 63.7376 1.01001C64.4753 0.605655 65.3113 0.41987 66.1419 0.283264C68.65 -0.126556 71.2509 -0.104699 73.6989 0.583798C75.0541 0.966296 76.3546 1.55644 77.5403 2.31597C78.6605 3.03725 79.5785 4.00442 80.4965 4.9716C80.8353 5.32678 81.1577 5.70381 81.4582 6.09177C84.2231 9.61076 85.8569 14.5559 85.1466 19.0311C84.8843 20.6704 84.2067 21.6704 82.4964 22.1731C81.3872 22.5009 80.1959 22.4518 79.0539 22.2769C75.6442 21.7414 72.4859 20.0366 69.8466 17.8126C67.2074 15.5832 65.049 12.8456 63.0873 9.99872C62.5628 9.23372 62.0218 8.35944 62.1748 7.44691C61.5628 7.47969 61.1147 7.13545 60.8087 6.6382C60.5847 6.27209 60.3552 5.90599 60.1312 5.53988C59.8689 5.11367 59.5465 4.62735 59.0766 4.40878C58.4646 4.12464 58.1149 4.60549 57.6504 4.90056C57.6176 4.55085 57.7706 4.10825 57.8854 3.77493C58.022 3.38696 58.2405 3.02632 58.4974 2.70939C58.9236 2.19029 59.4755 1.65479 60.1039 1.38704L60.1093 1.39251Z" fill="#1A1A1A"/>
<path d="M82.2736 98.5635C82.6452 99.2465 83.055 99.9241 83.29 100.673C83.4812 101.268 83.5523 101.897 83.6178 102.52C83.7599 103.897 83.8692 105.279 83.9785 106.656C84.1206 108.476 84.2626 110.295 84.4047 112.115C84.4812 113.093 84.5577 114.071 84.5959 115.049C84.6069 115.35 84.6123 115.661 84.5085 115.945C84.4047 116.229 84.1643 116.481 83.8637 116.514C83.4211 116.557 83.0878 116.142 82.749 115.852C82.2791 115.454 81.6726 115.246 81.2026 114.847C80.5797 114.311 80.2792 113.492 80.0879 112.689C79.7437 111.219 79.7 109.694 79.6071 108.186C79.4705 106.093 79.2355 104.011 78.8913 101.946C78.853 101.716 78.7055 101.416 78.4869 101.492C78.4596 102.383 78.3503 103.274 78.1645 104.142C78.088 104.487 78.0006 104.836 77.7875 105.11C77.5744 105.388 77.2083 105.574 76.8695 105.476C76.6291 105.41 76.4487 105.213 76.3067 105.011C75.4488 103.793 75.6236 102.159 75.4652 100.673C75.3504 99.5908 75.0444 98.5471 74.8641 97.4761C74.6838 96.4051 74.6401 95.274 75.039 94.2631C75.3012 93.5965 75.7493 92.9845 75.8258 92.2741C75.8422 92.0938 75.8422 91.9025 75.9296 91.7441C76.0061 91.6075 76.1427 91.5091 76.2793 91.4326C77.0116 91.0064 77.9186 90.8917 78.7383 91.1102C79.0716 91.1977 79.394 91.3452 79.6399 91.5802C79.8857 91.8097 80.0333 92.0938 80.0715 92.4271C80.1043 92.7113 80.1426 92.9954 80.1972 93.2741C80.5469 95.1319 81.3775 96.9133 82.2791 98.5635H82.2736Z" fill="#E39268"/>
<path d="M75.3266 105.186C76.1299 105.809 77.1954 105.995 78.1899 106.077C79.7089 106.208 81.2444 106.23 82.758 105.989C83.064 105.94 83.3536 105.836 83.6541 105.776C84.1787 105.667 84.1732 106.039 84.2935 106.492C84.6268 107.749 84.9164 109.017 85.1513 110.301C85.4792 112.077 85.7087 113.869 85.8562 115.672C85.9874 117.229 86.042 118.918 85.5229 120.41C85.3481 120.912 85.1404 121.251 84.6213 121.399C84.0803 121.552 83.4957 121.541 82.9492 121.42C82.2334 121.262 81.5723 120.923 80.9548 120.535C77.5123 118.371 75.2884 114.645 74.1573 110.743C73.6272 108.913 73.2119 106.891 73.7474 105.017C73.8567 104.64 74.2337 104.224 74.6326 104.509C74.7474 104.591 74.8348 104.705 74.9277 104.809C75.0534 104.951 75.19 105.077 75.3321 105.186H75.3266Z" fill="#883D14"/>
<path d="M1.79929 80.5643C3.26917 74.7831 5.6953 69.2423 8.94653 64.237C9.50935 63.3737 10.1104 62.5049 10.9465 61.9038C11.2361 63.8436 12.5092 65.5758 14.1977 66.5757C15.8861 67.5757 17.9462 67.8708 19.8805 67.5484C20.9078 67.379 21.9132 67.0402 22.9569 67.0347C23.1536 67.0347 23.3722 67.0511 23.5306 67.1714C24.6399 68.0183 23.8967 70.2204 23.4596 71.1767C21.8422 74.723 19.9625 78.1545 17.8423 81.4221C17.2741 82.2964 16.6949 83.3128 16.0555 84.2581C17.4653 86.3236 35.2515 107.858 35.3225 107.924C35.5739 108.088 35.7761 108.224 35.8307 108.257C36.3553 108.563 36.8252 108.787 37.4044 108.951C38.0874 109.148 38.7322 109.399 39.4371 109.541C40.1693 109.689 40.907 109.809 41.6228 110.028C43.6774 110.656 45.3822 112.077 46.9341 113.563C48.4859 115.049 49.9613 116.645 51.7918 117.765C52.147 117.984 52.524 118.186 52.7972 118.503C53.0704 118.82 53.2234 119.279 53.054 119.656C52.9611 119.863 52.7863 120.022 52.595 120.142C51.6224 120.754 50.3219 120.393 49.3602 119.765C48.3985 119.136 47.6007 118.262 46.5789 117.738C46.5789 118.459 46.9832 119.109 47.3657 119.721C48.5187 121.552 49.6771 123.382 50.8301 125.218C51.4475 126.202 52.0759 127.196 52.4256 128.305C52.7754 129.415 52.8191 130.666 52.2945 131.704C52.2235 131.846 52.136 131.988 51.9994 132.07C51.6497 132.283 51.218 131.999 50.9066 131.726C48.9504 130.005 47.0871 128.169 45.333 126.24C45.7975 128.491 47.8084 130.109 48.628 132.256C48.7209 132.502 48.7974 132.803 48.6444 133.021C48.557 133.152 48.404 133.218 48.251 133.267C47.4095 133.518 46.5079 133.12 45.8084 132.589C43.9178 131.152 42.9561 128.797 41.284 127.103C41.448 128.907 43.5025 130.316 43.1528 132.092C41.601 131.622 40.3278 130.453 39.448 129.087C38.5683 127.721 38.0383 126.169 37.5629 124.617C37.3334 123.858 37.1148 123.093 36.7924 122.371C36.4318 121.546 35.9454 120.781 35.4537 120.027C34.2898 118.218 33.0876 116.426 31.6669 114.82C21.8804 106.607 11.4601 99.0389 3.23092 89.2961C2.22549 88.1049 1.48781 86.9902 1.25831 85.4384C1.01788 83.81 1.39493 82.1598 1.79929 80.5697V80.5643Z" fill="#F2A983"/>
<path d="M45.0753 118.765C43.5945 120.142 42.0973 121.524 40.3706 122.579C38.6493 123.639 36.6603 124.36 34.6385 124.278C35.48 127.485 37.48 130.382 40.1902 132.294C42.9005 134.212 46.2938 135.135 49.5997 134.857C50.3155 134.797 51.0477 134.676 51.6597 134.299C52.4083 133.84 52.8892 133.064 53.3154 132.299C54.2716 130.584 55.0967 128.77 55.512 126.852C55.9328 124.928 55.9273 122.885 55.2716 121.032C54.4137 118.628 52.5613 116.776 50.698 115.12C50.3647 114.825 49.9385 114.218 49.5341 114.415C49.2281 114.568 48.6653 115.437 48.3648 115.715C47.2665 116.732 46.1736 117.748 45.0753 118.765Z" fill="#91502D"/>
<path d="M34.4901 45.9482C34.9546 48.8551 34.5448 52.0517 33.8289 54.6964C33.2443 56.8548 32.3317 58.9148 31.3755 60.9257C29.2936 65.2971 26.7254 69.4172 24.1572 73.5263C24.0534 73.6957 23.9332 73.876 23.7528 73.9634C23.5998 74.0399 23.4195 74.0345 23.2447 74.029C19.682 73.8815 16.2559 72.5099 13.2669 70.5646C11.032 69.1112 9.26708 67.2369 7.89009 64.9583C7.77534 64.7671 7.6606 64.5594 7.6442 64.3354C7.62781 64.1441 7.68245 63.9584 7.74256 63.778C8.68787 60.7399 10.2616 57.9367 11.8954 55.2046C14.0811 51.5436 16.3925 47.9535 18.8241 44.4455C20.2612 42.3691 21.8076 40.2599 24.0097 39.0249C25.6653 38.0905 27.7636 37.7518 29.545 38.5386C32.3645 39.7845 34.0366 43.0357 34.4956 45.9372L34.4901 45.9482Z" fill="#238F89"/>
</g>
<defs>
<clipPath id="clip0_563_35481">
<rect width="113.514" height="240" fill="white" transform="matrix(-1 0 0 1 114.223 0)"/>
</clipPath>
</defs>
</svg>
