<svg width="73" height="240" viewBox="0 0 73 240" fill="none" xmlns="http://www.w3.org/2000/svg">
<path d="M30.1622 27.5114C26.7212 26.9442 21.4019 34.5437 17.6228 40.2612C14.3659 45.1897 11.0451 49.0778 4.76043 55.7532C-2.29437 63.2475 1.85285 65.2009 2.88966 67.4323C5.91744 68.871 17.2772 66.0611 24.0465 60.1859C30.8159 54.3107 39.918 34.8667 39.918 34.8667C39.918 34.8667 33.175 28.0073 30.1622 27.5114Z" fill="#FFC8B5"/>
<path d="M69.0231 213.036C67.8698 209.001 66.4499 209.561 66.1456 207.78C63.963 194.925 55.6798 178.731 55.0901 177.551C50.6348 180.752 48.764 186.436 45.015 188.043C50.8189 197.803 56.1194 208.468 57.5882 211.894C57.6596 213.907 53.5123 224.121 51.7956 228.374C49.9173 233.024 48.4184 239.358 52.4492 238.415C59.1509 236.848 63.0464 230.864 63.4634 226.27C64.0006 220.342 69.9247 216.206 69.0194 213.028L69.0231 213.036Z" fill="#FFC8B5"/>
<path d="M69.905 215.853C70.0477 212.867 67.7713 210.02 67.7713 210.02C67.6022 210.88 66.5128 212.431 65.7127 214.385C62.9554 213.22 57.5873 211.898 57.5873 211.898L57.0538 214.283L65.0853 216.387C65.044 216.575 64.9914 216.755 64.9614 216.947C64.7548 218.243 64.5857 219.644 64.458 220.853C63.594 222.6 62.5421 224.933 62.1214 226.729C61.6368 228.81 60.8855 231.113 60.4047 232.51C58.748 230.436 54.9389 227.754 51.7947 228.378C51.7947 228.378 47.7639 233.209 46.2913 235.741C44.8187 238.273 47.7226 240.549 52.7225 239.324C57.0388 238.265 59.8938 236.451 60.8818 235.012V235.008C61.0358 234.783 61.156 234.565 61.2161 234.362C61.2311 234.313 61.2236 234.249 61.2236 234.189C61.7946 232.799 62.9366 229.907 63.5188 227.672C63.9997 225.831 64.8712 223.975 65.4948 222.788C65.5286 222.758 65.5549 222.735 65.5887 222.705C65.4986 225.41 65.3746 229.283 65.337 230.41C66.3776 231.237 67.5196 230.481 67.5196 230.481C67.5196 230.481 67.8126 227.514 68.6202 224.084C69.2401 221.451 70.0853 218.461 69.905 215.857V215.853Z" fill="#3A2832"/>
<path d="M44.185 207.521C45.1918 203.487 41.4277 200.462 41.0145 198.701C38.3398 187.393 34.6622 178.449 33.0055 174.17C28.5503 177.371 24.7449 178.408 20.9958 180.016C26.7997 189.775 31.2024 200 32.6749 203.426C32.7463 205.44 28.5991 215.654 26.8823 219.906C25.0041 224.557 23.5052 230.891 27.536 229.948C34.2377 228.381 38.1332 222.397 38.5502 217.803C39.0874 211.875 43.3886 210.722 44.185 207.517V207.521Z" fill="#FFC8B5"/>
<path d="M44.9948 207.386C45.1376 204.399 42.8611 201.552 42.8611 201.552C42.6921 202.412 41.6027 203.963 40.8025 205.917C38.0452 204.752 32.6771 203.43 32.6771 203.43L32.1437 205.815L40.1752 207.919C40.1339 208.107 40.0813 208.287 40.0512 208.479C39.8446 209.775 39.6756 211.176 39.5478 212.386C38.6838 214.129 37.632 216.461 37.2113 218.261C36.7267 220.342 35.9754 222.645 35.4945 224.042C33.8379 221.969 30.0287 219.286 26.8845 219.91C26.8845 219.91 22.8537 224.741 21.3812 227.273C19.9086 229.805 22.8124 232.081 27.8124 230.857C32.1286 229.797 34.9836 227.983 35.9716 226.544V226.54C36.1256 226.315 36.2458 226.097 36.3059 225.894C36.321 225.845 36.3134 225.778 36.3134 225.721C36.8844 224.331 38.0264 221.439 38.6087 219.204C39.0895 217.363 39.9611 215.507 40.5846 214.32C40.6184 214.29 40.6447 214.268 40.6786 214.238C40.5884 216.942 40.4644 220.815 40.4269 221.942C41.4674 222.769 42.6094 222.014 42.6094 222.014C42.6094 222.014 42.9024 219.046 43.7101 215.616C44.3299 212.979 45.1751 209.993 44.9948 207.389V207.386Z" fill="#3A2832"/>
<path d="M3.86294 140.362C0.132683 149.791 2.62703 156.252 8.17169 164.636C12.3715 170.989 22.5555 186.053 29.2459 196C35.2151 196.24 39.3248 192.198 39.3248 192.198C39.3248 192.198 36.0227 173.637 33.2279 166.132C28.7726 154.178 25.4443 153.397 23.382 148.551C35.0085 135.955 47.082 116.323 47.082 116.323C47.082 116.323 42.5291 103.871 39.7718 88.5964C38.4758 81.4101 33.5509 84.3027 26.0266 96.3988C17.5518 110.016 6.44369 133.844 3.86294 140.362Z" fill="#2B1822"/>
<path d="M35.701 94.3064C35.701 94.3064 28.2067 115.294 36.6627 119.742C33.8679 125.257 30.6522 134.141 27.9025 147.086C25.4119 158.806 26.4825 161.338 32.0271 169.723C36.227 176.075 47.4741 194.52 54.1645 204.463C60.1336 204.7 64.2433 200.662 64.2433 200.662C64.2433 200.662 60.9413 182.101 58.1464 174.595C53.6912 162.642 50.3629 161.857 48.3005 157.014C59.927 144.419 61.2719 121.282 61.2719 121.282C61.2719 121.282 69.9307 113.33 64.6903 97.0599C59.9308 82.2854 35.7048 94.3064 35.7048 94.3064H35.701Z" fill="#3A2832"/>
<path d="M24.8752 76.8868C26.2013 81.8492 26.3403 96.1203 23.474 100.485C28.6318 106.485 36.0247 108.149 42.8428 108.333C48.1245 108.476 62.0388 107.258 66.1484 103.532C64.4768 88.9866 61.9148 72.2925 61.9148 72.2925C61.9148 72.2925 53.8382 71.6539 53.0944 61.3535C52.3206 50.6811 58.286 45.343 58.286 45.343C58.286 45.343 55.2507 42.7886 51.0734 39.7646C43.534 34.3063 35.1532 27.8901 32.7565 31.0494C29.0337 35.9592 26.0811 44.3551 23.5041 49.4339C22.5086 51.3986 19.4545 57.071 18.5116 62.3302C17.6439 67.1836 20.2735 74.0506 24.879 76.8868H24.8752Z" fill="#B5BA9A"/>
<path d="M46.0272 7.62052C46.0272 7.62052 48.8558 0.873761 56.5868 0.389166C64.3216 -0.0954285 63.2847 6.38462 63.2847 6.38462C63.2847 6.38462 66.5868 3.24414 69.0886 8.37183C71.5942 13.4995 65.9106 18.4168 65.9106 18.4168C65.9106 18.4168 67.7663 19.7767 65.7265 24.078C63.6867 28.3792 52.6387 23.6497 52.6387 23.6497L46.0234 7.61677L46.0272 7.62052Z" fill="#2B1822"/>
<path d="M42.0384 43.5177C46.5162 44.9828 49.9121 43.8934 53.0977 41.3201C52.8798 40.9895 52.6581 40.6515 52.4365 40.2833C50.7047 37.4171 51.1067 36.2676 51.411 32.6387C51.6664 29.5433 51.024 29.2128 51.0879 26.4404C46.6326 28.3901 40.6109 29.1376 36.1143 28.7883C35.9265 30.1669 35.4945 31.5907 34.7619 32.913C34.2548 38.0068 37.1812 41.9287 42.0421 43.5177H42.0384Z" fill="#FFB8A3"/>
<path d="M51.8239 39.1676L54.168 42.0752C54.168 42.0752 52.8795 45.1668 46.005 45.2758C39.1305 45.3847 35.9637 42.7664 34.4724 40.6702C32.981 38.5703 33.5746 34.825 33.5746 34.825L36.6061 33.8408C36.6061 33.8408 36.6925 37.6349 40.2086 39.5395C46.0839 42.7213 51.8164 39.1676 51.8164 39.1676H51.8239Z" fill="#B5BA9A"/>
<path d="M51.8456 26.4671C53.2393 22.8759 53.7014 16.9518 52.0861 13.2516C50.4933 9.59649 45.9967 7.3388 42.4129 6.06158C36.8533 4.08188 29.2199 8.99168 27.1614 16.3094C25.2605 23.0675 26.4626 34.138 32.9878 38.5745C40.2454 43.5069 49.7307 31.9292 51.8494 26.4671H51.8456Z" fill="#FFC8B5"/>
<path d="M54.8914 10.0692C51.6945 6.47046 44.9215 -0.302604 35.6428 4.79128C29.7713 8.01815 27.6827 11.4291 27.5587 15.2007C30.9809 17.9392 36.8487 20.2044 45.624 19.979C46.3753 21.9888 48.7907 30.3846 51.3978 32.6386C53.6404 29.4906 56.826 25.2344 57.4045 21.0308C57.8966 17.4659 57.288 12.7739 54.8876 10.0692H54.8914Z" fill="#3A2832"/>
<path d="M38.901 76.7443C43.653 76.8983 48.4727 73.6602 48.4727 73.6602C48.4727 73.6602 46.7709 80.3393 38.9385 80.1139C31.3804 79.8998 29.0325 74.1147 29.0325 74.1147C29.0325 74.1147 33.4577 76.5677 38.901 76.7443Z" fill="#DB2E68"/>
<path d="M26.9945 28.6677C22.2237 29.4265 17.8736 33.7428 14.7068 37.0073C11.5401 40.2717 8.47848 45.0726 4.48527 50.1402C0.495813 55.2077 -0.852791 60.3354 0.514593 64.5352C1.87822 68.7313 4.83087 67.7471 7.01718 66.4398C9.2035 65.1325 12.6069 57.6833 13.4747 55.2941C14.3425 52.905 14.1997 44.4114 17.528 43.2582C20.8601 42.1011 28.3168 38.0967 29.2785 36.7518C33.0839 31.4325 28.8578 28.3709 26.9945 28.6677Z" fill="#FFC8B5"/>
<path d="M35.2603 48.1082C35.651 53.6942 36.5488 60.6438 37.7321 66.6919C38.7051 71.6505 39.1559 76.2974 39.1559 76.2974C39.1559 76.2974 47.3301 68.2208 49.7456 64.8549C48.412 59.0698 51.2181 52.8903 53.9304 49.4568L58.2805 45.3472C58.2805 45.3472 64.5126 48.5778 67.2173 54.7874C69.922 60.997 63.2429 71.1321 59.1107 75.8654C54.9785 80.6024 47.6645 86.0193 42.5668 90.1666C39.7269 92.4806 35.6097 92.7924 33.4647 89.7346C30.1251 84.9788 28.198 83.1681 27.5632 74.9863C27.2326 70.7189 28.739 55.5161 28.9531 49.0699C31.1845 48.3111 32.8862 48.2247 35.2641 48.1045L35.2603 48.1082Z" fill="#FFC8B5"/>
<path d="M26.3388 25.1821C26.3388 25.1821 30.8129 28.6494 36.1021 28.7922C35.3809 33.8447 37.4883 39.7726 37.4883 39.7726C37.4883 39.7726 33.2772 43.3338 29.0398 50.7267C24.3779 58.8634 18.5703 70.0766 18.5703 70.0766C18.5703 70.0766 9.14887 63.9948 2.913 63.1308C4.62223 51.7297 0.185748 37.1317 0.185748 37.1317C0.185748 37.1317 18.3674 29.5698 26.3388 25.1859V25.1821Z" fill="#EDAD72"/>
<path d="M36.106 28.792C36.106 28.792 35.5087 31.2075 36.2676 34.7236C37.0264 38.2397 37.4922 39.7724 37.4922 39.7724C37.4922 39.7724 32.218 45.5763 28.7995 52.1352C25.8093 57.879 18.5705 70.0765 18.5705 70.0765C18.5705 70.0765 16.5156 62.7474 15.8319 56.598C14.9266 48.4613 14.8965 43.6567 14.8965 43.6567C14.8965 43.6567 19.6298 39.1638 24.8702 36.0534C30.1106 32.943 36.1023 28.792 36.1023 28.792H36.106Z" fill="#DB9861"/>
<path d="M0.185759 37.1278C0.185759 37.1278 2.75899 40.1856 7.07527 41.9023C11.1549 43.5214 14.8964 43.6529 14.8964 43.6529C14.8964 43.6529 14.9227 49.3666 15.6402 54.7986C16.3577 60.2306 18.5703 70.0727 18.5703 70.0727C18.5703 70.0727 14.07 67.1351 10.5238 65.6663C6.9776 64.1975 2.91301 63.1269 2.91301 63.1269C2.91301 63.1269 2.9656 55.7002 2.22181 50.2569C1.48177 44.8137 0.182005 37.124 0.182005 37.124L0.185759 37.1278Z" fill="#CE8752"/>
<path d="M26.6303 31.0613C28.6626 31.2641 30.7738 31.0275 31.897 33.5293C33.0202 36.0312 32.4116 34.8629 33.9218 40.6668C35.4319 46.4707 35.1089 46.1476 35.3793 50.4864C35.7287 56.1175 36.6641 61.7823 36.6641 61.7823C36.6641 61.7823 28.8467 62.2519 28.8392 62.3308C28.8279 62.4097 28.5725 53.7696 28.6889 50.9184C28.7415 49.6261 27.6709 49.6262 26.9759 47.5939C26.4425 46.0311 26.4387 44.3294 26.9346 41.1889C25.755 39.6675 26.187 38.92 25.7287 38.0635C24.7145 37.1807 24.6168 37.4549 23.8129 36.5646C22.9489 35.5992 24.136 35.0658 24.136 35.0658C24.136 35.0658 22.1488 33.3002 25.3155 33.8336C24.6131 33.1199 24.1172 32.0305 24.8873 32.1807C25.8114 32.361 26.867 32.6052 26.867 32.6052C26.867 32.6052 25.0526 30.9073 26.6341 31.065L26.6303 31.0613Z" fill="#FFC8B5"/>
<path d="M20.3271 27.4812C21.5104 28.0597 22.2467 28.6495 24.0986 29.5661C25.5036 30.2648 24.8312 31.3241 23.4375 30.9147C24.3052 31.7974 23.182 32.6389 21.5029 31.7974C21.6043 32.5563 20.7365 32.5563 19.8425 32.3647C18.9522 32.1769 18.0318 31.7974 18.0318 31.7974C18.0318 31.7974 18.738 33.0484 16.8973 32.6352C15.6764 32.3609 14.5006 30.9109 14.5006 30.9109L12.4834 31.7974C12.4834 31.7974 12.4834 29.0439 13.8958 29.0439C14.6284 27.5413 15.4022 27.669 16.4315 28.1649C16.6982 27.083 17.6486 26.9252 18.6742 27.669C19.0724 26.6322 19.85 27.2407 20.3233 27.4737L20.3271 27.4812Z" fill="#FFC8B5"/>
</svg>
